<?xml version="1.0" standalone="no"?>
<!DOCTYPE svg PUBLIC "-//W3C//DTD SVG 20010904//EN"
 "http://www.w3.org/TR/2001/REC-SVG-20010904/DTD/svg10.dtd">
<svg version="1.0" xmlns="http://www.w3.org/2000/svg"
 width="700.000000pt" height="700.000000pt" viewBox="0 0 700.000000 700.000000"
 preserveAspectRatio="xMidYMid meet">
<metadata>
Created by potrace 1.11, written by Peter Selinger 2001-2013
</metadata>
<g transform="translate(0.000000,700.000000) scale(0.100000,-0.100000)"
fill="#000000" stroke="none">
<path d="M3210 6558 c-171 -19 -199 -23 -345 -55 -202 -43 -436 -122 -632
-214 -720 -337 -1281 -965 -1540 -1723 -33 -97 -88 -299 -98 -360 -3 -17 -10
-56 -15 -86 -11 -62 -16 -99 -30 -215 -9 -82 -6 -490 4 -557 3 -21 8 -53 10
-70 8 -61 17 -113 32 -183 8 -38 17 -81 20 -95 9 -44 64 -243 89 -316 88 -266
183 -456 352 -706 40 -59 75 -118 78 -131 5 -20 -3 -64 -29 -167 -34 -131
-189 -739 -191 -750 -2 -8 -13 -53 -25 -100 -12 -47 -23 -92 -25 -100 -7 -36
-55 -219 -61 -235 -9 -22 -8 -21 206 63 91 35 192 75 225 87 33 12 245 94 470
182 226 88 420 163 432 167 15 5 58 -9 145 -47 193 -85 417 -161 573 -193 130
-27 275 -49 395 -59 87 -8 384 -8 450 -1 25 3 72 8 105 11 33 4 121 18 195 31
861 157 1595 688 2032 1469 93 166 206 428 243 565 53 190 74 277 80 316 3 26
8 50 10 54 2 4 7 29 10 56 3 27 8 58 10 69 13 64 20 196 20 390 0 237 -6 310
-40 508 -52 303 -174 628 -342 917 -50 84 -129 206 -143 220 -3 3 -13 17 -22
31 -34 53 -183 227 -276 323 -239 245 -499 435 -807 592 -261 132 -597 245
-833 280 -20 3 -44 7 -52 9 -15 4 -66 10 -205 24 -96 10 -384 10 -475 -1z
m380 -1363 c36 -3 76 -8 90 -11 14 -2 47 -7 73 -10 74 -10 203 -59 288 -110
127 -77 242 -203 311 -344 74 -149 93 -353 48 -517 -40 -145 -90 -229 -258
-433 -294 -355 -360 -485 -362 -710 l0 -55 -78 -2 c-453 -11 -514 -10 -534 11
-63 68 -34 314 59 501 36 72 121 200 179 270 168 203 267 356 284 440 31 149
12 234 -69 314 -59 59 -129 85 -226 84 -108 -1 -200 -38 -409 -165 -88 -53
-89 -53 -108 -35 -11 11 -173 146 -304 254 -21 18 -42 33 -46 33 -46 1 105
169 247 274 134 100 287 169 445 201 8 2 44 6 80 10 36 4 66 8 67 8 4 4 164
-2 223 -8z m58 -2420 c101 -48 190 -154 217 -260 23 -91 9 -220 -34 -303 -58
-113 -205 -195 -346 -194 -78 1 -98 6 -172 42 -163 81 -246 289 -189 480 65
220 315 332 524 235z"/>
</g>
</svg>
