<?xml version="1.0" standalone="no"?>
<!DOCTYPE svg PUBLIC "-//W3C//DTD SVG 20010904//EN"
 "http://www.w3.org/TR/2001/REC-SVG-20010904/DTD/svg10.dtd">
<svg version="1.0" xmlns="http://www.w3.org/2000/svg"
 width="700.000000pt" height="700.000000pt" viewBox="0 0 700.000000 700.000000"
 preserveAspectRatio="xMidYMid meet">
<metadata>
Created by potrace 1.11, written by Peter Selinger 2001-2013
</metadata>
<g transform="translate(0.000000,700.000000) scale(0.100000,-0.100000)"
fill="#000000" stroke="none">
<path d="M964 3500 l0 -3490 523 0 523 0 0 1480 0 1480 1533 0 1532 0 478 478
477 477 0 1055 0 1054 -477 478 -478 478 -906 0 c-717 0 -908 -3 -911 -12 -2
-7 -4 -222 -4 -478 l1 -465 860 -1 860 0 3 -1055 2 -1054 -1472 2 c-810 0
-1479 2 -1485 2 -10 1 -13 218 -13 1050 0 991 1 1049 18 1053 9 2 268 3 575 3
382 -1 557 2 558 10 1 12 1 915 0 933 -1 9 -228 12 -1099 12 l-1098 0 0 -3490z"/>
</g>
</svg>
